<svg xmlns="http://www.w3.org/2000/svg" xmlns:xlink="http://www.w3.org/1999/xlink" width="600" zoomAndPan="magnify" viewBox="0 0 450 449.999984" height="600" preserveAspectRatio="xMidYMid meet" version="1.2"><g id="6421a4a5aa"><path style=" stroke:none;fill-rule:evenodd;fill:#02eaff;fill-opacity:1;" d="M 225.007812 405 C 324.136719 405 405 324.152344 405 225.007812 C 405 125.847656 324.152344 45 225.007812 45 C 125.847656 45 45 125.847656 45 225.007812 C 45 324.152344 125.847656 405 225.007812 405 Z M 225.007812 405 "/><path style=" stroke:none;fill-rule:evenodd;fill:#fefefe;fill-opacity:1;" d="M 318.136719 155.316406 C 326.554688 169.582031 330.742188 182.449219 330.742188 193.945312 L 330.742188 198.316406 C 330.742188 205.40625 329.203125 210.3125 326.121094 213.117188 C 323.054688 215.882812 317.601562 217.265625 309.796875 217.265625 C 287.625 217.265625 276.542969 209.308594 276.542969 193.398438 L 276.542969 186.285156 C 276.542969 180.855469 275.773438 177.019531 274.234375 174.671875 C 272.707031 172.335938 269.429688 170.207031 264.472656 168.25 C 255.792969 164.792969 242.597656 163.054688 224.851562 163.054688 C 206.867188 163.054688 193.527344 164.910156 184.863281 168.589844 C 177.253906 171.902344 173.445312 177.699219 173.445312 186.039062 L 173.445312 192.8125 C 173.445312 209.109375 162.234375 217.253906 139.773438 217.253906 C 132.152344 217.253906 126.851562 215.949219 123.824219 213.378906 C 120.785156 210.753906 119.246094 206.304688 119.246094 199.882812 L 119.246094 194.742188 C 119.246094 183.664062 123.421875 170.519531 131.8125 155.304688 C 144.640625 150.03125 158.789062 146.128906 174.214844 143.464844 C 189.625 140.855469 206.304688 139.550781 224.289062 139.550781 C 242.457031 139.550781 259.382812 140.855469 275.015625 143.464844 C 290.691406 146.140625 305.019531 150.058594 318.136719 155.316406 Z M 318.136719 155.316406 "/><path style=" stroke:none;fill-rule:evenodd;fill:#fefefe;fill-opacity:1;" d="M 208.496094 196.53125 L 241.476562 196.53125 L 241.476562 175.542969 L 266.574219 175.542969 L 266.574219 202.0625 L 294.019531 245.585938 C 300.320312 255.453125 304.09375 262.410156 305.320312 266.414062 C 306.585938 270.371094 307.199219 277.585938 307.199219 288.054688 L 307.199219 310.460938 L 143.011719 310.460938 L 143.011719 288.054688 C 143.011719 279.023438 143.84375 271.753906 145.542969 266.167969 C 147.226562 260.609375 150.695312 253.679688 155.957031 245.339844 L 183.363281 202.0625 L 183.363281 175.542969 L 208.496094 175.542969 Z M 225.007812 214.761719 C 243.589844 214.761719 258.636719 229.820312 258.636719 248.394531 C 258.636719 266.964844 243.578125 282.039062 225.007812 282.039062 C 206.4375 282.039062 191.363281 266.964844 191.363281 248.394531 C 191.363281 229.820312 206.421875 214.761719 225.007812 214.761719 Z M 225.007812 214.761719 "/><path style=" stroke:none;fill-rule:nonzero;fill:#02eaff;fill-opacity:1;" d="M 404.917969 225.039062 L 403.277344 249.457031 C 395.492188 298.652344 372.710938 338 334.933594 367.496094 C 296.894531 396.964844 252.101562 408.917969 200.554688 403.347656 C 151.359375 395.558594 112.011719 372.777344 82.515625 335 C 73.066406 322.789062 65.28125 309.484375 59.164062 295.085938 L 51.449219 272.878906 C 47.210938 257.597656 45.070312 241.652344 45.023438 225.039062 C 46.308594 174.0625 63.878906 131.648438 97.726562 97.796875 C 131.578125 63.945312 173.992188 46.378906 224.972656 45.09375 C 275.949219 46.378906 318.363281 63.945312 352.214844 97.796875 C 386.0625 131.648438 403.632812 174.0625 404.917969 225.039062 "/><path style=" stroke:none;fill-rule:nonzero;fill:#fefefe;fill-opacity:1;" d="M 189.445312 279.335938 C 173.625 265.382812 155.597656 240.765625 146.242188 223.539062 C 138.371094 209.046875 133.773438 193.8125 132.203125 177.894531 C 130.804688 163.664062 132.207031 151.042969 138.980469 141.609375 C 152.25 123.128906 163.496094 115.953125 170.398438 118.351562 C 175.304688 118.605469 180.230469 122.28125 184.679688 129.679688 C 192.234375 142.246094 198.238281 155.46875 202.175781 169.355469 C 203.386719 173.628906 202.839844 177.3125 201.570312 180.160156 C 201.40625 181.457031 197.777344 187.183594 190.8125 197.429688 C 190.027344 198.589844 189.472656 200.050781 189.140625 201.753906 C 188.226562 206.453125 189.246094 211.535156 191.496094 217.214844 C 197.246094 231.71875 204.328125 242.792969 240.546875 273.761719 Z M 189.445312 279.335938 "/><path style=" stroke:none;fill-rule:nonzero;fill:#fefefe;fill-opacity:1;" d="M 171.570312 260.285156 C 184.488281 276.960938 207.902344 296.523438 224.5 306.957031 C 238.460938 315.738281 253.371094 321.300781 269.15625 323.878906 C 283.269531 326.1875 295.953125 325.59375 305.800781 319.433594 C 325.089844 307.367188 332.964844 296.605469 331.011719 289.5625 C 331.074219 284.648438 327.722656 279.5 320.617188 274.585938 C 308.558594 266.246094 295.746094 259.410156 282.140625 254.597656 C 277.953125 253.117188 274.242188 253.425781 271.320312 254.511719 C 270.015625 254.589844 264.070312 257.847656 253.398438 264.144531 C 252.191406 264.855469 250.695312 265.3125 248.976562 265.535156 C 244.226562 266.152344 239.222656 264.808594 233.699219 262.199219 C 219.59375 255.539062 208.992188 247.765625 180.394531 209.644531 Z M 171.570312 260.285156 "/></g></svg>