<svg xmlns="http://www.w3.org/2000/svg" xmlns:xlink="http://www.w3.org/1999/xlink" width="600" zoomAndPan="magnify" viewBox="0 0 450 449.999984" height="600" preserveAspectRatio="xMidYMid meet" version="1.2"><defs><clipPath id="fccfc71c47"><path d="M 45 45 L 405 45 L 405 405 L 45 405 Z M 45 45 "/></clipPath></defs><g id="33102c66ae"><path style=" stroke:none;fill-rule:evenodd;fill:#ffffff;fill-opacity:1;" d="M 225.007812 405 C 324.136719 405 405 324.152344 405 225.007812 C 405 125.847656 324.152344 45 225.007812 45 C 125.847656 45 45 125.847656 45 225.007812 C 45 324.152344 125.847656 405 225.007812 405 Z M 225.007812 405 "/><path style=" stroke:none;fill-rule:evenodd;fill:#fefefe;fill-opacity:1;" d="M 318.136719 155.316406 C 326.554688 169.582031 330.742188 182.449219 330.742188 193.945312 L 330.742188 198.316406 C 330.742188 205.40625 329.203125 210.3125 326.121094 213.117188 C 323.054688 215.882812 317.601562 217.265625 309.796875 217.265625 C 287.625 217.265625 276.542969 209.308594 276.542969 193.398438 L 276.542969 186.285156 C 276.542969 180.855469 275.773438 177.019531 274.234375 174.671875 C 272.707031 172.335938 269.429688 170.207031 264.472656 168.25 C 255.792969 164.792969 242.597656 163.054688 224.851562 163.054688 C 206.867188 163.054688 193.527344 164.910156 184.863281 168.589844 C 177.253906 171.902344 173.445312 177.699219 173.445312 186.039062 L 173.445312 192.8125 C 173.445312 209.109375 162.234375 217.253906 139.773438 217.253906 C 132.152344 217.253906 126.851562 215.949219 123.824219 213.378906 C 120.785156 210.753906 119.246094 206.304688 119.246094 199.882812 L 119.246094 194.742188 C 119.246094 183.664062 123.421875 170.519531 131.8125 155.304688 C 144.640625 150.03125 158.789062 146.128906 174.214844 143.464844 C 189.625 140.855469 206.304688 139.550781 224.289062 139.550781 C 242.457031 139.550781 259.382812 140.855469 275.015625 143.464844 C 290.691406 146.140625 305.019531 150.058594 318.136719 155.316406 Z M 318.136719 155.316406 "/><path style=" stroke:none;fill-rule:evenodd;fill:#fefefe;fill-opacity:1;" d="M 208.496094 196.53125 L 241.476562 196.53125 L 241.476562 175.542969 L 266.574219 175.542969 L 266.574219 202.0625 L 294.019531 245.585938 C 300.320312 255.453125 304.09375 262.410156 305.320312 266.414062 C 306.585938 270.371094 307.199219 277.585938 307.199219 288.054688 L 307.199219 310.460938 L 143.011719 310.460938 L 143.011719 288.054688 C 143.011719 279.023438 143.84375 271.753906 145.542969 266.167969 C 147.226562 260.609375 150.695312 253.679688 155.957031 245.339844 L 183.363281 202.0625 L 183.363281 175.542969 L 208.496094 175.542969 Z M 225.007812 214.761719 C 243.589844 214.761719 258.636719 229.820312 258.636719 248.394531 C 258.636719 266.964844 243.578125 282.039062 225.007812 282.039062 C 206.4375 282.039062 191.363281 266.964844 191.363281 248.394531 C 191.363281 229.820312 206.421875 214.761719 225.007812 214.761719 Z M 225.007812 214.761719 "/><path style=" stroke:none;fill-rule:nonzero;fill:#02eaff;fill-opacity:1;" d="M 254.257812 237.019531 C 246.140625 244.589844 235.425781 248.390625 224.691406 248.390625 C 214.167969 248.390625 203.613281 244.71875 195.550781 237.378906 L 193.667969 235.660156 L 130.136719 293.898438 L 319.859375 293.898438 L 256.007812 235.382812 L 254.257812 237.019531 "/><g clip-rule="nonzero" clip-path="url(#fccfc71c47)"><path style=" stroke:none;fill-rule:nonzero;fill:#02eaff;fill-opacity:1;" d="M 348.792969 287.765625 C 348.792969 300.484375 338.4375 310.832031 325.71875 310.832031 L 124.273438 310.832031 C 111.570312 310.832031 101.210938 300.484375 101.210938 287.765625 L 101.210938 162.230469 C 101.210938 149.511719 111.570312 139.179688 124.273438 139.179688 L 325.71875 139.179688 C 338.4375 139.179688 348.792969 149.511719 348.792969 162.230469 Z M 225.015625 44.996094 C 125.59375 44.996094 45 125.59375 45 225.003906 C 45 324.421875 125.59375 405.015625 225.015625 405.015625 C 324.421875 405.015625 405.011719 324.421875 405.011719 225.003906 C 405.011719 125.59375 324.421875 44.996094 225.015625 44.996094 "/></g><path style=" stroke:none;fill-rule:nonzero;fill:#02eaff;fill-opacity:1;" d="M 331.84375 281.890625 L 331.84375 164.632812 L 268.449219 223.773438 Z M 331.84375 281.890625 "/><path style=" stroke:none;fill-rule:nonzero;fill:#02eaff;fill-opacity:1;" d="M 118.15625 166.890625 L 118.15625 281.890625 L 181.089844 224.199219 Z M 118.15625 166.890625 "/><path style=" stroke:none;fill-rule:nonzero;fill:#02eaff;fill-opacity:1;" d="M 242.699219 224.632812 L 316.140625 156.121094 L 131.480469 156.121094 L 206.953125 224.84375 C 216.878906 233.863281 232.902344 233.777344 242.699219 224.632812 "/></g></svg>