<svg xmlns="http://www.w3.org/2000/svg" xmlns:xlink="http://www.w3.org/1999/xlink" width="600" zoomAndPan="magnify" viewBox="0 0 450 449.999984" height="600" preserveAspectRatio="xMidYMid meet" version="1.2"><defs><clipPath id="e710079e2a"><path d="M 45 45 L 405 45 L 405 405 L 45 405 Z M 45 45 "/></clipPath></defs><g id="e67c9704a1"><path style=" stroke:none;fill-rule:evenodd;fill:#ffffff;fill-opacity:1;" d="M 225.007812 405 C 324.136719 405 405 324.152344 405 225.007812 C 405 125.847656 324.152344 45 225.007812 45 C 125.847656 45 45 125.847656 45 225.007812 C 45 324.152344 125.847656 405 225.007812 405 Z M 225.007812 405 "/><path style=" stroke:none;fill-rule:evenodd;fill:#fefefe;fill-opacity:1;" d="M 318.136719 155.316406 C 326.554688 169.582031 330.742188 182.449219 330.742188 193.945312 L 330.742188 198.316406 C 330.742188 205.40625 329.203125 210.3125 326.121094 213.117188 C 323.054688 215.882812 317.601562 217.265625 309.796875 217.265625 C 287.625 217.265625 276.542969 209.308594 276.542969 193.398438 L 276.542969 186.285156 C 276.542969 180.855469 275.773438 177.019531 274.234375 174.671875 C 272.707031 172.335938 269.429688 170.207031 264.472656 168.25 C 255.792969 164.792969 242.597656 163.054688 224.851562 163.054688 C 206.867188 163.054688 193.527344 164.910156 184.863281 168.589844 C 177.253906 171.902344 173.445312 177.699219 173.445312 186.039062 L 173.445312 192.8125 C 173.445312 209.109375 162.234375 217.253906 139.773438 217.253906 C 132.152344 217.253906 126.851562 215.949219 123.824219 213.378906 C 120.785156 210.753906 119.246094 206.304688 119.246094 199.882812 L 119.246094 194.742188 C 119.246094 183.664062 123.421875 170.519531 131.8125 155.304688 C 144.640625 150.03125 158.789062 146.128906 174.214844 143.464844 C 189.625 140.855469 206.304688 139.550781 224.289062 139.550781 C 242.457031 139.550781 259.382812 140.855469 275.015625 143.464844 C 290.691406 146.140625 305.019531 150.058594 318.136719 155.316406 Z M 318.136719 155.316406 "/><path style=" stroke:none;fill-rule:evenodd;fill:#fefefe;fill-opacity:1;" d="M 208.496094 196.53125 L 241.476562 196.53125 L 241.476562 175.542969 L 266.574219 175.542969 L 266.574219 202.0625 L 294.019531 245.585938 C 300.320312 255.453125 304.09375 262.410156 305.320312 266.414062 C 306.585938 270.371094 307.199219 277.585938 307.199219 288.054688 L 307.199219 310.460938 L 143.011719 310.460938 L 143.011719 288.054688 C 143.011719 279.023438 143.84375 271.753906 145.542969 266.167969 C 147.226562 260.609375 150.695312 253.679688 155.957031 245.339844 L 183.363281 202.0625 L 183.363281 175.542969 L 208.496094 175.542969 Z M 225.007812 214.761719 C 243.589844 214.761719 258.636719 229.820312 258.636719 248.394531 C 258.636719 266.964844 243.578125 282.039062 225.007812 282.039062 C 206.4375 282.039062 191.363281 266.964844 191.363281 248.394531 C 191.363281 229.820312 206.421875 214.761719 225.007812 214.761719 Z M 225.007812 214.761719 "/><g clip-rule="nonzero" clip-path="url(#e710079e2a)"><path style=" stroke:none;fill-rule:nonzero;fill:#02eaff;fill-opacity:1;" d="M 405.027344 224.980469 C 405.027344 227.925781 404.957031 230.871094 404.8125 233.8125 C 404.667969 236.757812 404.449219 239.695312 404.160156 242.625 C 403.871094 245.558594 403.511719 248.480469 403.078125 251.394531 C 402.648438 254.308594 402.144531 257.210938 401.570312 260.097656 C 400.992188 262.988281 400.347656 265.863281 399.632812 268.71875 C 398.917969 271.578125 398.132812 274.414062 397.277344 277.234375 C 396.421875 280.054688 395.496094 282.847656 394.503906 285.625 C 393.511719 288.398438 392.453125 291.144531 391.324219 293.867188 C 390.199219 296.589844 389.003906 299.28125 387.746094 301.945312 C 386.484375 304.605469 385.160156 307.238281 383.773438 309.835938 C 382.382812 312.433594 380.933594 314.996094 379.417969 317.523438 C 377.902344 320.050781 376.328125 322.539062 374.691406 324.988281 C 373.054688 327.4375 371.359375 329.84375 369.605469 332.210938 C 367.847656 334.578125 366.039062 336.898438 364.167969 339.175781 C 362.300781 341.453125 360.375 343.683594 358.398438 345.863281 C 356.417969 348.046875 354.386719 350.179688 352.304688 352.265625 C 350.222656 354.347656 348.089844 356.378906 345.90625 358.355469 C 343.722656 360.335938 341.492188 362.257812 339.214844 364.125 C 336.941406 365.996094 334.617188 367.808594 332.25 369.5625 C 329.886719 371.316406 327.476562 373.011719 325.027344 374.648438 C 322.578125 376.285156 320.089844 377.863281 317.5625 379.375 C 315.035156 380.890625 312.476562 382.34375 309.875 383.730469 C 307.277344 385.121094 304.648438 386.445312 301.984375 387.703125 C 299.320312 388.964844 296.628906 390.15625 293.90625 391.285156 C 291.1875 392.410156 288.4375 393.472656 285.664062 394.464844 C 282.890625 395.457031 280.09375 396.378906 277.277344 397.234375 C 274.457031 398.089844 271.617188 398.875 268.761719 399.589844 C 265.902344 400.308594 263.03125 400.953125 260.140625 401.527344 C 257.25 402.101562 254.347656 402.605469 251.433594 403.039062 C 248.519531 403.46875 245.597656 403.832031 242.667969 404.121094 C 239.734375 404.40625 236.796875 404.625 233.855469 404.769531 C 230.914062 404.914062 227.96875 404.984375 225.023438 404.984375 C 222.078125 404.984375 219.132812 404.914062 216.191406 404.769531 C 213.25 404.625 210.3125 404.40625 207.378906 404.121094 C 204.449219 403.832031 201.523438 403.46875 198.609375 403.039062 C 195.695312 402.605469 192.796875 402.101562 189.90625 401.527344 C 187.015625 400.953125 184.144531 400.308594 181.285156 399.589844 C 178.429688 398.875 175.589844 398.089844 172.769531 397.234375 C 169.953125 396.378906 167.15625 395.457031 164.382812 394.464844 C 161.609375 393.472656 158.859375 392.410156 156.136719 391.285156 C 153.417969 390.15625 150.722656 388.964844 148.0625 387.703125 C 145.398438 386.445312 142.765625 385.121094 140.167969 383.730469 C 137.570312 382.34375 135.007812 380.890625 132.480469 379.375 C 129.957031 377.863281 127.46875 376.285156 125.019531 374.648438 C 122.570312 373.011719 120.160156 371.316406 117.792969 369.5625 C 115.429688 367.808594 113.105469 365.996094 110.828125 364.125 C 108.550781 362.257812 106.320312 360.335938 104.140625 358.355469 C 101.957031 356.378906 99.824219 354.347656 97.742188 352.265625 C 95.65625 350.179688 93.625 348.046875 91.648438 345.863281 C 89.671875 343.683594 87.746094 341.453125 85.878906 339.175781 C 84.007812 336.898438 82.195312 334.578125 80.441406 332.210938 C 78.6875 329.84375 76.992188 327.4375 75.355469 324.988281 C 73.71875 322.539062 72.140625 320.050781 70.628906 317.523438 C 69.113281 314.996094 67.660156 312.433594 66.273438 309.835938 C 64.882812 307.238281 63.558594 304.605469 62.300781 301.945312 C 61.042969 299.28125 59.847656 296.589844 58.71875 293.867188 C 57.59375 291.144531 56.53125 288.398438 55.539062 285.625 C 54.546875 282.847656 53.625 280.054688 52.769531 277.234375 C 51.914062 274.414062 51.128906 271.578125 50.414062 268.71875 C 49.695312 265.863281 49.050781 262.988281 48.476562 260.097656 C 47.902344 257.210938 47.398438 254.308594 46.964844 251.394531 C 46.535156 248.480469 46.175781 245.558594 45.886719 242.625 C 45.597656 239.695312 45.378906 236.757812 45.234375 233.8125 C 45.089844 230.871094 45.019531 227.925781 45.019531 224.980469 C 45.019531 222.035156 45.089844 219.089844 45.234375 216.148438 C 45.378906 213.207031 45.597656 210.269531 45.886719 207.339844 C 46.175781 204.40625 46.535156 201.484375 46.964844 198.570312 C 47.398438 195.65625 47.902344 192.753906 48.476562 189.863281 C 49.050781 186.976562 49.695312 184.101562 50.414062 181.242188 C 51.128906 178.386719 51.914062 175.546875 52.769531 172.730469 C 53.625 169.910156 54.546875 167.113281 55.539062 164.339844 C 56.53125 161.566406 57.59375 158.820312 58.71875 156.097656 C 59.847656 153.375 61.042969 150.683594 62.300781 148.019531 C 63.558594 145.355469 64.882812 142.726562 66.273438 140.128906 C 67.660156 137.53125 69.113281 134.96875 70.628906 132.441406 C 72.140625 129.914062 73.71875 127.425781 75.355469 124.976562 C 76.992188 122.527344 78.6875 120.117188 80.441406 117.753906 C 82.195312 115.386719 84.007812 113.066406 85.878906 110.789062 C 87.746094 108.511719 89.671875 106.28125 91.648438 104.097656 C 93.625 101.914062 95.65625 99.78125 97.742188 97.699219 C 99.824219 95.617188 101.957031 93.585938 104.140625 91.605469 C 106.320312 89.628906 108.550781 87.703125 110.828125 85.835938 C 113.105469 83.96875 115.429688 82.15625 117.792969 80.402344 C 120.160156 78.644531 122.570312 76.949219 125.019531 75.3125 C 127.46875 73.675781 129.957031 72.101562 132.480469 70.585938 C 135.007812 69.070312 137.570312 67.621094 140.167969 66.230469 C 142.765625 64.84375 145.398438 63.519531 148.0625 62.257812 C 150.722656 61 153.417969 59.804688 156.136719 58.679688 C 158.859375 57.550781 161.609375 56.492188 164.382812 55.5 C 167.15625 54.507812 169.953125 53.582031 172.769531 52.726562 C 175.589844 51.871094 178.429688 51.085938 181.285156 50.371094 C 184.144531 49.65625 187.015625 49.011719 189.90625 48.4375 C 192.796875 47.859375 195.695312 47.359375 198.609375 46.925781 C 201.523438 46.492188 204.449219 46.132812 207.378906 45.84375 C 210.3125 45.554688 213.25 45.339844 216.191406 45.195312 C 219.132812 45.050781 222.078125 44.976562 225.023438 44.976562 C 227.96875 44.976562 230.914062 45.050781 233.855469 45.195312 C 236.796875 45.339844 239.734375 45.554688 242.667969 45.84375 C 245.597656 46.132812 248.519531 46.492188 251.433594 46.925781 C 254.347656 47.359375 257.25 47.859375 260.140625 48.4375 C 263.03125 49.011719 265.902344 49.65625 268.761719 50.371094 C 271.617188 51.085938 274.457031 51.871094 277.277344 52.726562 C 280.09375 53.582031 282.890625 54.507812 285.664062 55.5 C 288.4375 56.492188 291.1875 57.550781 293.90625 58.679688 C 296.628906 59.804688 299.320312 61 301.984375 62.257812 C 304.648438 63.519531 307.277344 64.84375 309.875 66.230469 C 312.476562 67.621094 315.035156 69.070312 317.5625 70.585938 C 320.089844 72.101562 322.578125 73.675781 325.027344 75.3125 C 327.476562 76.949219 329.886719 78.644531 332.25 80.402344 C 334.617188 82.15625 336.941406 83.96875 339.214844 85.835938 C 341.492188 87.703125 343.722656 89.628906 345.90625 91.605469 C 348.089844 93.585938 350.222656 95.617188 352.304688 97.699219 C 354.386719 99.78125 356.417969 101.914062 358.398438 104.097656 C 360.375 106.28125 362.300781 108.511719 364.167969 110.789062 C 366.039062 113.066406 367.847656 115.386719 369.605469 117.753906 C 371.359375 120.117188 373.054688 122.527344 374.691406 124.976562 C 376.328125 127.425781 377.902344 129.914062 379.417969 132.441406 C 380.933594 134.96875 382.382812 137.53125 383.773438 140.128906 C 385.160156 142.726562 386.484375 145.355469 387.746094 148.019531 C 389.003906 150.683594 390.199219 153.375 391.324219 156.097656 C 392.453125 158.820312 393.511719 161.566406 394.503906 164.339844 C 395.496094 167.113281 396.421875 169.910156 397.277344 172.730469 C 398.132812 175.546875 398.917969 178.386719 399.632812 181.242188 C 400.347656 184.101562 400.992188 186.976562 401.570312 189.863281 C 402.144531 192.753906 402.648438 195.65625 403.078125 198.570312 C 403.511719 201.484375 403.871094 204.40625 404.160156 207.339844 C 404.449219 210.269531 404.667969 213.207031 404.8125 216.148438 C 404.957031 219.089844 405.027344 222.035156 405.027344 224.980469 Z M 405.027344 224.980469 "/></g><path style=" stroke:none;fill-rule:nonzero;fill:#ffffff;fill-opacity:1;" d="M 302.628906 185.902344 C 302.613281 184.640625 302.570312 183.378906 302.496094 182.121094 C 302.417969 180.859375 302.3125 179.605469 302.175781 178.351562 C 302.039062 177.097656 301.875 175.847656 301.675781 174.601562 C 301.480469 173.355469 301.25 172.117188 300.992188 170.882812 C 300.734375 169.648438 300.449219 168.417969 300.128906 167.199219 C 299.8125 165.976562 299.464844 164.765625 299.089844 163.5625 C 298.710938 162.359375 298.304688 161.164062 297.871094 159.980469 C 297.4375 158.796875 296.972656 157.625 296.480469 156.464844 C 295.988281 155.300781 295.46875 154.152344 294.917969 153.015625 C 294.371094 151.882812 293.796875 150.757812 293.191406 149.652344 C 292.589844 148.542969 291.960938 147.453125 291.304688 146.375 C 290.648438 145.296875 289.964844 144.238281 289.257812 143.191406 C 288.550781 142.148438 287.816406 141.121094 287.058594 140.113281 C 286.300781 139.105469 285.519531 138.117188 284.714844 137.148438 C 283.910156 136.175781 283.078125 135.226562 282.226562 134.296875 C 281.375 133.367188 280.5 132.460938 279.601562 131.574219 C 278.707031 130.6875 277.789062 129.820312 276.851562 128.980469 C 275.910156 128.136719 274.953125 127.316406 273.972656 126.523438 C 272.996094 125.726562 271.996094 124.957031 270.980469 124.207031 C 269.964844 123.460938 268.929688 122.742188 267.878906 122.042969 C 266.828125 121.347656 265.757812 120.675781 264.675781 120.03125 C 263.589844 119.386719 262.492188 118.769531 261.378906 118.179688 C 260.261719 117.589844 259.132812 117.027344 257.992188 116.488281 C 256.851562 115.953125 255.695312 115.445312 254.53125 114.96875 C 253.363281 114.488281 252.1875 114.035156 250.996094 113.613281 C 249.808594 113.191406 248.609375 112.800781 247.402344 112.4375 C 246.195312 112.074219 244.980469 111.738281 243.757812 111.433594 C 242.53125 111.128906 241.300781 110.855469 240.0625 110.609375 C 238.828125 110.367188 237.585938 110.152344 236.335938 109.96875 C 235.089844 109.785156 233.835938 109.632812 232.582031 109.507812 C 231.328125 109.386719 230.070312 109.292969 228.808594 109.234375 C 227.550781 109.171875 226.289062 109.140625 225.027344 109.140625 C 223.765625 109.140625 222.503906 109.171875 221.246094 109.234375 C 219.984375 109.292969 218.730469 109.386719 217.472656 109.507812 C 216.21875 109.632812 214.964844 109.785156 213.71875 109.96875 C 212.472656 110.152344 211.230469 110.367188 209.992188 110.609375 C 208.753906 110.855469 207.523438 111.128906 206.300781 111.433594 C 205.074219 111.738281 203.859375 112.074219 202.652344 112.4375 C 201.445312 112.800781 200.246094 113.191406 199.058594 113.613281 C 197.867188 114.035156 196.691406 114.488281 195.523438 114.96875 C 194.359375 115.445312 193.203125 115.953125 192.0625 116.488281 C 190.921875 117.027344 189.792969 117.589844 188.679688 118.179688 C 187.5625 118.769531 186.464844 119.386719 185.378906 120.03125 C 184.296875 120.675781 183.226562 121.347656 182.175781 122.042969 C 181.125 122.742188 180.089844 123.460938 179.074219 124.207031 C 178.058594 124.957031 177.0625 125.726562 176.082031 126.523438 C 175.101562 127.316406 174.144531 128.136719 173.207031 128.980469 C 172.265625 129.820312 171.347656 130.6875 170.453125 131.574219 C 169.554688 132.460938 168.679688 133.367188 167.828125 134.296875 C 166.976562 135.226562 166.148438 136.175781 165.339844 137.148438 C 164.535156 138.117188 163.753906 139.105469 162.996094 140.113281 C 162.238281 141.121094 161.503906 142.148438 160.796875 143.191406 C 160.089844 144.238281 159.40625 145.296875 158.75 146.375 C 158.09375 147.449219 157.464844 148.542969 156.863281 149.652344 C 156.257812 150.757812 155.683594 151.882812 155.136719 153.015625 C 154.585938 154.152344 154.066406 155.300781 153.574219 156.464844 C 153.082031 157.625 152.621094 158.796875 152.183594 159.980469 C 151.75 161.164062 151.34375 162.359375 150.964844 163.5625 C 150.589844 164.765625 150.242188 165.976562 149.925781 167.199219 C 149.605469 168.417969 149.320312 169.648438 149.0625 170.882812 C 148.804688 172.117188 148.578125 173.355469 148.378906 174.601562 C 148.179688 175.847656 148.015625 177.097656 147.878906 178.351562 C 147.742188 179.605469 147.636719 180.859375 147.5625 182.121094 C 147.484375 183.378906 147.441406 184.640625 147.425781 185.902344 C 147.417969 192.890625 148.339844 199.757812 150.191406 206.496094 C 152.046875 213.238281 154.765625 219.609375 158.347656 225.613281 L 225.03125 341.667969 L 291.71875 225.613281 C 295.300781 219.609375 298.019531 213.238281 299.871094 206.496094 C 301.726562 199.757812 302.648438 192.890625 302.636719 185.902344 Z M 225.023438 149.484375 C 226.214844 149.484375 227.40625 149.542969 228.59375 149.660156 C 229.777344 149.777344 230.957031 149.953125 232.128906 150.1875 C 233.296875 150.417969 234.453125 150.707031 235.59375 151.054688 C 236.734375 151.398438 237.855469 151.800781 238.957031 152.257812 C 240.058594 152.714844 241.136719 153.222656 242.1875 153.785156 C 243.242188 154.347656 244.261719 154.960938 245.253906 155.621094 C 246.246094 156.285156 247.203125 156.996094 248.125 157.75 C 249.046875 158.507812 249.929688 159.308594 250.773438 160.152344 C 251.613281 160.996094 252.414062 161.878906 253.171875 162.800781 C 253.929688 163.722656 254.636719 164.679688 255.300781 165.667969 C 255.964844 166.660156 256.574219 167.683594 257.136719 168.734375 C 257.699219 169.785156 258.210938 170.863281 258.664062 171.964844 C 259.121094 173.066406 259.523438 174.1875 259.871094 175.328125 C 260.214844 176.472656 260.503906 177.625 260.738281 178.796875 C 260.96875 179.964844 261.144531 181.144531 261.261719 182.332031 C 261.378906 183.519531 261.4375 184.707031 261.4375 185.902344 C 261.4375 187.09375 261.378906 188.28125 261.261719 189.46875 C 261.144531 190.65625 260.96875 191.835938 260.738281 193.003906 C 260.503906 194.175781 260.214844 195.328125 259.871094 196.472656 C 259.523438 197.613281 259.121094 198.734375 258.664062 199.835938 C 258.210938 200.9375 257.699219 202.015625 257.136719 203.066406 C 256.574219 204.117188 255.964844 205.140625 255.300781 206.132812 C 254.636719 207.121094 253.929688 208.078125 253.171875 209 C 252.414062 209.921875 251.613281 210.804688 250.773438 211.648438 C 249.929688 212.492188 249.046875 213.292969 248.125 214.050781 C 247.203125 214.804688 246.246094 215.515625 245.253906 216.179688 C 244.261719 216.839844 243.242188 217.453125 242.1875 218.015625 C 241.136719 218.578125 240.058594 219.085938 238.957031 219.542969 C 237.855469 220 236.734375 220.402344 235.59375 220.746094 C 234.453125 221.09375 233.296875 221.382812 232.128906 221.617188 C 230.957031 221.847656 229.777344 222.023438 228.59375 222.140625 C 227.40625 222.257812 226.214844 222.316406 225.023438 222.316406 C 223.832031 222.316406 222.640625 222.257812 221.453125 222.140625 C 220.265625 222.023438 219.089844 221.847656 217.917969 221.617188 C 216.75 221.382812 215.59375 221.09375 214.453125 220.746094 C 213.3125 220.402344 212.191406 220 211.085938 219.542969 C 209.984375 219.085938 208.910156 218.578125 207.855469 218.015625 C 206.804688 217.453125 205.785156 216.839844 204.792969 216.179688 C 203.800781 215.515625 202.84375 214.804688 201.921875 214.050781 C 201 213.292969 200.117188 212.492188 199.273438 211.648438 C 198.429688 210.804688 197.628906 209.921875 196.875 209 C 196.117188 208.078125 195.40625 207.121094 194.746094 206.132812 C 194.082031 205.140625 193.46875 204.117188 192.910156 203.066406 C 192.347656 202.015625 191.835938 200.9375 191.378906 199.835938 C 190.925781 198.734375 190.523438 197.613281 190.175781 196.472656 C 189.832031 195.328125 189.539062 194.175781 189.308594 193.003906 C 189.074219 191.835938 188.902344 190.65625 188.785156 189.46875 C 188.667969 188.28125 188.609375 187.09375 188.609375 185.902344 C 188.609375 184.707031 188.667969 183.519531 188.785156 182.332031 C 188.902344 181.144531 189.074219 179.964844 189.308594 178.796875 C 189.539062 177.625 189.832031 176.472656 190.175781 175.328125 C 190.523438 174.1875 190.925781 173.066406 191.378906 171.964844 C 191.835938 170.863281 192.347656 169.785156 192.910156 168.734375 C 193.46875 167.683594 194.082031 166.660156 194.746094 165.667969 C 195.40625 164.679688 196.117188 163.722656 196.875 162.800781 C 197.628906 161.878906 198.429688 160.996094 199.273438 160.152344 C 200.117188 159.308594 201 158.507812 201.921875 157.75 C 202.84375 156.996094 203.800781 156.285156 204.792969 155.625 C 205.785156 154.960938 206.804688 154.347656 207.855469 153.785156 C 208.910156 153.222656 209.984375 152.714844 211.085938 152.257812 C 212.191406 151.800781 213.3125 151.398438 214.453125 151.054688 C 215.59375 150.707031 216.75 150.417969 217.917969 150.1875 C 219.089844 149.953125 220.265625 149.777344 221.453125 149.660156 C 222.640625 149.542969 223.832031 149.484375 225.023438 149.484375 Z M 225.023438 149.484375 "/></g></svg>