<svg xmlns="http://www.w3.org/2000/svg" xmlns:xlink="http://www.w3.org/1999/xlink" width="600" zoomAndPan="magnify" viewBox="0 0 450 449.999984" height="600" preserveAspectRatio="xMidYMid meet" version="1.2"><defs><clipPath id="38ef9f354d"><path d="M 255.367188 156.175781 L 297.367188 156.175781 L 297.367188 198.175781 L 255.367188 198.175781 Z M 255.367188 156.175781 "/></clipPath><clipPath id="748fd3f5f5"><path d="M 238.234375 149.117188 L 276.484375 149.117188 L 276.484375 184.367188 L 238.234375 184.367188 Z M 238.234375 149.117188 "/></clipPath><clipPath id="718cce7b7c"><path d="M 47.851562 45 L 400 45 L 400 405 L 47.851562 405 Z M 47.851562 45 "/></clipPath></defs><g id="f5cccdef04"><g clip-rule="nonzero" clip-path="url(#38ef9f354d)"><path style=" stroke:none;fill-rule:evenodd;fill:#ffffff;fill-opacity:1;" d="M 276.371094 198.175781 C 287.933594 198.175781 297.367188 188.746094 297.367188 177.175781 C 297.367188 165.609375 287.9375 156.175781 276.371094 156.175781 C 264.800781 156.175781 255.367188 165.609375 255.367188 177.175781 C 255.367188 188.746094 264.800781 198.175781 276.371094 198.175781 Z M 276.371094 198.175781 "/></g><path style=" stroke:none;fill-rule:evenodd;fill:#fefefe;fill-opacity:1;" d="M 287.234375 169.046875 C 288.214844 170.710938 288.707031 172.210938 288.707031 173.554688 L 288.707031 174.0625 C 288.707031 174.890625 288.527344 175.460938 288.167969 175.789062 C 287.808594 176.113281 287.171875 176.273438 286.261719 176.273438 C 283.675781 176.273438 282.382812 175.34375 282.382812 173.488281 L 282.382812 172.660156 C 282.382812 172.027344 282.292969 171.578125 282.113281 171.304688 C 281.933594 171.03125 281.550781 170.785156 280.972656 170.554688 C 279.960938 170.152344 278.421875 169.949219 276.351562 169.949219 C 274.253906 169.949219 272.695312 170.164062 271.6875 170.59375 C 270.796875 170.980469 270.355469 171.65625 270.355469 172.628906 L 270.355469 173.421875 C 270.355469 175.324219 269.046875 176.273438 266.425781 176.273438 C 265.535156 176.273438 264.917969 176.121094 264.566406 175.820312 C 264.210938 175.515625 264.03125 174.996094 264.03125 174.246094 L 264.03125 173.644531 C 264.03125 172.355469 264.519531 170.820312 265.496094 169.046875 C 266.992188 168.429688 268.644531 167.976562 270.445312 167.664062 C 272.242188 167.359375 274.1875 167.207031 276.285156 167.207031 C 278.40625 167.207031 280.378906 167.359375 282.203125 167.664062 C 284.03125 167.976562 285.703125 168.433594 287.234375 169.046875 Z M 287.234375 169.046875 "/><path style=" stroke:none;fill-rule:evenodd;fill:#fefefe;fill-opacity:1;" d="M 274.445312 173.855469 L 278.289062 173.855469 L 278.289062 171.40625 L 281.21875 171.40625 L 281.21875 174.5 L 284.421875 179.578125 C 285.15625 180.730469 285.597656 181.539062 285.738281 182.007812 C 285.886719 182.46875 285.957031 183.3125 285.957031 184.53125 L 285.957031 187.148438 L 266.804688 187.148438 L 266.804688 184.53125 C 266.804688 183.480469 266.902344 182.632812 267.097656 181.980469 C 267.296875 181.332031 267.699219 180.523438 268.3125 179.550781 L 271.511719 174.5 L 271.511719 171.40625 L 274.445312 171.40625 Z M 276.371094 175.980469 C 278.539062 175.980469 280.292969 177.738281 280.292969 179.90625 C 280.292969 182.074219 278.535156 183.832031 276.371094 183.832031 C 274.203125 183.832031 272.445312 182.074219 272.445312 179.90625 C 272.445312 177.738281 274.203125 175.980469 276.371094 175.980469 Z M 276.371094 175.980469 "/><g clip-rule="nonzero" clip-path="url(#748fd3f5f5)"><path style=" stroke:none;fill-rule:nonzero;fill:#ffffff;fill-opacity:1;" d="M 258.804688 149.117188 C 249.050781 149.117188 241.148438 157.007812 241.148438 166.738281 C 241.144531 168.898438 241.527344 170.988281 242.296875 173.007812 L 238.367188 180.363281 C 238.242188 180.59375 238.257812 180.816406 238.410156 181.03125 C 238.566406 181.242188 238.773438 181.328125 239.03125 181.285156 L 247.097656 179.933594 C 248.710938 181.363281 250.527344 182.457031 252.542969 183.222656 C 254.5625 183.984375 256.648438 184.363281 258.804688 184.359375 C 268.558594 184.359375 276.464844 176.472656 276.464844 166.738281 C 276.464844 157.015625 268.550781 149.117188 258.804688 149.117188 Z M 258.859375 179.765625 C 257.136719 179.773438 255.476562 179.453125 253.878906 178.804688 C 252.285156 178.15625 250.875 177.230469 249.648438 176.023438 L 244.816406 176.894531 C 244.558594 176.9375 244.355469 176.855469 244.199219 176.644531 C 244.046875 176.4375 244.027344 176.214844 244.144531 175.984375 L 246.582031 171.324219 C 246.007812 169.796875 245.730469 168.21875 245.753906 166.589844 C 245.832031 159.4375 251.636719 153.714844 258.804688 153.714844 C 266.015625 153.714844 271.859375 159.546875 271.859375 166.738281 C 271.859375 173.925781 266.0625 179.738281 258.859375 179.765625 Z M 258.859375 179.765625 "/></g><path style=" stroke:none;fill-rule:nonzero;fill:#ffffff;fill-opacity:1;" d="M 256.960938 162.347656 L 256.390625 159.945312 C 256.324219 159.667969 256.203125 159.417969 256.03125 159.191406 C 255.859375 158.964844 255.644531 158.78125 255.394531 158.648438 C 255.144531 158.511719 254.875 158.433594 254.589844 158.410156 C 254.304688 158.390625 254.027344 158.425781 253.761719 158.523438 L 252.445312 158.996094 C 252.230469 159.074219 252.035156 159.183594 251.859375 159.328125 C 251.683594 159.46875 251.535156 159.640625 251.417969 159.832031 C 251.296875 160.027344 251.214844 160.234375 251.164062 160.457031 C 251.117188 160.675781 251.105469 160.902344 251.136719 161.125 C 251.59375 164.839844 253.703125 173.824219 263.398438 175.796875 C 263.792969 175.878906 264.175781 175.84375 264.546875 175.695312 C 264.917969 175.546875 265.21875 175.304688 265.449219 174.976562 L 266.203125 173.890625 C 266.355469 173.671875 266.457031 173.433594 266.515625 173.171875 C 266.570312 172.914062 266.574219 172.652344 266.527344 172.390625 C 266.480469 172.132812 266.382812 171.890625 266.238281 171.667969 C 266.097656 171.445312 265.914062 171.257812 265.695312 171.105469 C 265.691406 171.101562 265.6875 171.097656 265.683594 171.097656 L 264.023438 169.96875 C 263.65625 169.71875 263.25 169.605469 262.804688 169.625 C 262.359375 169.644531 261.964844 169.796875 261.621094 170.082031 C 261.277344 170.363281 260.886719 170.515625 260.445312 170.539062 C 260 170.558594 259.59375 170.449219 259.226562 170.203125 C 258.21875 169.523438 256.855469 168.398438 255.96875 166.839844 C 255.761719 166.484375 255.675781 166.097656 255.710938 165.6875 C 255.742188 165.277344 255.886719 164.914062 256.144531 164.589844 L 256.570312 164.0625 C 256.980469 163.554688 257.109375 162.980469 256.960938 162.347656 Z M 256.960938 162.347656 "/><g clip-rule="nonzero" clip-path="url(#718cce7b7c)"><path style=" stroke:none;fill-rule:nonzero;fill:#02eaff;fill-opacity:1;" d="M 224.769531 45.566406 C 322.535156 46.09375 401.828125 125.953125 399.730469 223.054688 C 397.691406 317.875 318.183594 393.917969 222.125 393.03125 C 194.292969 392.777344 168.003906 386.132812 144.691406 374.527344 L 59.554688 404.632812 L 88.589844 330.503906 C 63.136719 300.371094 47.816406 261.609375 47.816406 219.304688 C 47.816406 123.132812 127.355469 45.042969 224.769531 45.566406 Z M 224.769531 45.566406 "/></g><path style=" stroke:none;fill-rule:nonzero;fill:#ffffff;fill-opacity:1;" d="M 152.746094 358.441406 L 147.601562 355.878906 L 100.246094 372.625 C 97.90625 373.453125 95.300781 372.839844 93.578125 371.054688 C 91.855469 369.273438 91.328125 366.648438 92.230469 364.339844 L 107.605469 325.101562 L 102.386719 318.925781 C 78.828125 291.035156 65.851562 255.65625 65.851562 219.300781 C 65.851562 133.414062 136.707031 63.539062 223.796875 63.539062 L 224.652344 63.542969 C 313.070312 64.019531 383.566406 136.152344 381.703125 222.664062 C 379.855469 308.351562 308.109375 375.03125 223.792969 375.0625 C 199.332031 375.070312 174.941406 369.488281 152.746094 358.441406 Z M 150.84375 343.339844 C 155.769531 345.230469 181.867188 362.390625 223.785156 362.390625 C 302.5625 362.382812 367.363281 299.957031 369.03125 222.390625 C 370.75 142.699219 305.671875 76.65625 224.601562 76.21875 L 223.777344 76.214844 C 143.691406 76.214844 78.523438 140.40625 78.523438 219.304688 C 78.523438 252.667969 90.4375 285.140625 112.070312 310.75 L 119.722656 319.804688 C 121.222656 321.582031 121.628906 324.039062 120.78125 326.207031 L 109.085938 356.054688 L 145.90625 343.035156 C 147.507812 342.472656 149.289062 342.566406 150.84375 343.339844 Z M 150.84375 343.339844 "/><path style=" stroke:none;fill-rule:nonzero;fill:#ffffff;fill-opacity:1;" d="M 318.242188 281.460938 L 292.640625 307.058594 C 281.851562 317.851562 266.09375 322.070312 251.289062 318.042969 C 192.636719 302.050781 146.839844 256.246094 130.851562 197.605469 C 126.824219 182.851562 131.019531 167.066406 141.832031 156.25 L 167.433594 130.652344 L 205.128906 168.359375 L 183.585938 200.675781 C 197.570312 228.644531 220.246094 251.320312 248.21875 265.304688 L 280.535156 243.761719 Z M 318.242188 281.460938 "/></g></svg>